<svg width="16" height="16" viewBox="0 0 16 16" fill="none" xmlns="http://www.w3.org/2000/svg">
<g clip-path="url(#clip0_2001_3607)">
<path d="M15.2333 0H8.29999C8.09999 0 7.96665 0.133333 7.96665 0.333333V4.8L0.733319 5.8C0.566652 5.83333 0.433319 5.96667 0.433319 6.13333V15.6667C0.433319 15.8667 0.566652 16 0.766652 16H15.2C15.4 16 15.5333 15.8667 15.5333 15.6667V0.333333C15.5667 0.133333 15.4 0 15.2333 0ZM2.96665 15.3333V12.8667H7.43332V15.3333H2.96665ZM9.26665 15.3333H8.09999V12.5333C8.09999 12.3333 7.96665 12.2 7.76665 12.2H2.63332C2.43332 12.2 2.29999 12.3333 2.29999 12.5333V15.3333H1.09999V6.4L9.26665 5.3V15.3333ZM14.9 15.3333H9.93332V4.9C9.93332 4.7 9.76665 4.53333 9.56665 4.56667L8.63332 4.7V0.666667H14.9V15.3333Z" fill="#A5A5A5" stroke="#A5A5A5" stroke-width="0.2"/>
<path d="M11.7667 3.33335H13.2C13.4 3.33335 13.5333 3.20002 13.5333 3.00002C13.5333 2.80002 13.4 2.66669 13.2 2.66669H11.7667C11.5667 2.66669 11.4333 2.80002 11.4333 3.00002C11.4333 3.20002 11.5667 3.33335 11.7667 3.33335ZM11.7667 5.83335H13.2C13.4 5.83335 13.5333 5.70002 13.5333 5.50002C13.5333 5.30002 13.4 5.16669 13.2 5.16669H11.7667C11.5667 5.16669 11.4333 5.30002 11.4333 5.50002C11.4333 5.70002 11.5667 5.83335 11.7667 5.83335ZM11.7667 8.33335H13.2C13.4 8.33335 13.5333 8.20002 13.5333 8.00002C13.5333 7.80002 13.4 7.66669 13.2 7.66669H11.7667C11.5667 7.66669 11.4333 7.80002 11.4333 8.00002C11.4333 8.20002 11.5667 8.33335 11.7667 8.33335ZM11.7667 10.8334H13.2C13.4 10.8334 13.5333 10.7 13.5333 10.5C13.5333 10.3 13.4 10.1667 13.2 10.1667H11.7667C11.5667 10.1667 11.4333 10.3 11.4333 10.5C11.4333 10.7 11.5667 10.8334 11.7667 10.8334ZM11.7667 13.3334H13.2C13.4 13.3334 13.5333 13.2 13.5333 13C13.5333 12.8 13.4 12.6667 13.2 12.6667H11.7667C11.5667 12.6667 11.4333 12.8 11.4333 13C11.4333 13.2 11.5667 13.3334 11.7667 13.3334ZM2.76665 8.33335H3.89999C4.09999 8.33335 4.23332 8.20002 4.23332 8.00002C4.23332 7.80002 4.09999 7.66669 3.89999 7.66669H2.76665C2.56665 7.66669 2.43332 7.80002 2.43332 8.00002C2.43332 8.20002 2.59999 8.33335 2.76665 8.33335ZM6.46665 8.33335H7.59999C7.79998 8.33335 7.93332 8.20002 7.93332 8.00002C7.93332 7.80002 7.79998 7.66669 7.59999 7.66669H6.46665C6.26665 7.66669 6.13332 7.80002 6.13332 8.00002C6.13332 8.20002 6.29999 8.33335 6.46665 8.33335ZM2.76665 10.6H3.89999C4.09999 10.6 4.23332 10.4667 4.23332 10.2667C4.23332 10.0667 4.09999 9.93335 3.89999 9.93335H2.76665C2.56665 9.93335 2.43332 10.0667 2.43332 10.2667C2.43332 10.4667 2.59999 10.6 2.76665 10.6ZM6.46665 10.6H7.59999C7.79998 10.6 7.93332 10.4667 7.93332 10.2667C7.93332 10.0667 7.79998 9.93335 7.59999 9.93335H6.46665C6.26665 9.93335 6.13332 10.0667 6.13332 10.2667C6.13332 10.4667 6.29999 10.6 6.46665 10.6Z" fill="#A5A5A5" stroke="#A5A5A5" stroke-width="0.2"/>
</g>
<defs>
<clipPath id="clip0_2001_3607">
<rect width="16" height="16" fill="white"/>
</clipPath>
</defs>
</svg>
