<svg width="20" height="20" viewBox="0 0 20 20" fill="none" xmlns="http://www.w3.org/2000/svg">
<rect width="20" height="20" rx="10" fill="#F4F4F4"/>
<rect width="20" height="20" rx="10" fill="url(#paint0_linear_2001_3564)"/>
<path d="M13.4372 9.30762C13.2302 9.30762 13.0377 9.36862 12.8777 9.47262C12.8258 9.32973 12.7422 9.20042 12.6332 9.09437C12.5243 8.98832 12.3928 8.90826 12.2485 8.86018C12.1043 8.8121 11.951 8.79724 11.8002 8.81671C11.6495 8.83618 11.505 8.88948 11.3777 8.97262C11.3075 8.77905 11.1798 8.6116 11.0117 8.49273C10.8436 8.37386 10.6431 8.30926 10.4372 8.30762C10.2537 8.30762 10.0842 8.35912 9.93721 8.44212V6.27212C9.93721 5.74062 9.48871 5.30762 8.93721 5.30762C8.39521 5.30762 7.93721 5.75462 7.93721 6.28262V10.3821L7.23071 9.65662C6.85321 9.27962 6.22921 9.29062 5.83921 9.67962C5.48821 10.0311 5.46921 10.5951 5.79321 11.0511C6.01421 11.3626 6.27921 11.9396 6.56021 12.5506C7.30271 14.1671 8.14421 15.9991 9.33121 15.9991H12.1562C12.188 15.9988 12.2195 15.9928 12.2492 15.9816C12.3392 15.9456 14.4377 15.0831 14.4377 12.9876V10.2826C14.4372 9.75462 13.9792 9.30762 13.4372 9.30762Z" fill="white"/>
<path d="M7.43725 8.31355V6.28255C7.43725 5.48205 8.12425 4.80705 8.93725 4.80705C9.76425 4.80705 10.4373 5.46355 10.4373 6.27205V7.80705C10.5788 7.80705 10.7148 7.83405 10.8458 7.87155C11.1785 7.45575 11.3607 6.93959 11.3628 6.40705C11.3631 6.0892 11.2996 5.77452 11.1761 5.48165C11.0526 5.18878 10.8716 4.92367 10.6438 4.70205C9.69175 3.76655 8.14075 3.76655 7.18625 4.70255C6.95895 4.9244 6.77836 5.1895 6.65513 5.48224C6.53191 5.77498 6.46853 6.08943 6.46875 6.40705C6.46875 7.05155 6.72375 7.65705 7.18725 8.11205C7.26425 8.18855 7.35225 8.24955 7.43725 8.31355Z" fill="white"/>
<defs>
<linearGradient id="paint0_linear_2001_3564" x1="3.65708" y1="2.90415" x2="15.0585" y2="18.3929" gradientUnits="userSpaceOnUse">
<stop stop-color="#76C644"/>
<stop offset="1" stop-color="#549E26"/>
</linearGradient>
</defs>
</svg>
