<svg width="20" height="20" viewBox="0 0 20 20" fill="none" xmlns="http://www.w3.org/2000/svg">
<rect width="20" height="20" rx="10" fill="#F4F4F4"/>
<rect width="20" height="20" rx="10" fill="url(#paint0_linear_2001_3556)"/>
<path d="M10 4.75C8.90636 4.75124 7.85787 5.18624 7.08455 5.95955C6.31124 6.73287 5.87624 7.78136 5.875 8.875C5.875 12.4047 9.625 15.0705 9.78484 15.182C9.8479 15.2262 9.92302 15.2499 10 15.2499C10.077 15.2499 10.1521 15.2262 10.2152 15.182C10.375 15.0705 14.125 12.4047 14.125 8.875C14.1238 7.78136 13.6888 6.73287 12.9154 5.95955C12.1421 5.18624 11.0936 4.75124 10 4.75ZM10 7.375C10.2967 7.375 10.5867 7.46297 10.8334 7.6278C11.08 7.79262 11.2723 8.02689 11.3858 8.30097C11.4994 8.57506 11.5291 8.87666 11.4712 9.16763C11.4133 9.45861 11.2704 9.72588 11.0607 9.93566C10.8509 10.1454 10.5836 10.2883 10.2926 10.3462C10.0017 10.4041 9.70006 10.3744 9.42597 10.2608C9.15189 10.1473 8.91762 9.95503 8.7528 9.70835C8.58797 9.46168 8.5 9.17167 8.5 8.875C8.5 8.47717 8.65804 8.09564 8.93934 7.81434C9.22064 7.53304 9.60218 7.375 10 7.375Z" fill="white"/>
<defs>
<linearGradient id="paint0_linear_2001_3556" x1="3.65708" y1="2.90415" x2="15.0585" y2="18.3929" gradientUnits="userSpaceOnUse">
<stop stop-color="#76C644"/>
<stop offset="1" stop-color="#549E26"/>
</linearGradient>
</defs>
</svg>
