<svg width="26" height="26" viewBox="0 0 26 26" fill="none" xmlns="http://www.w3.org/2000/svg">
<g id="location-disable">
<path id="Vector" d="M9.27297 6.10678C10.2599 5.36988 11.4439 4.94375 12.6741 4.88275C13.8098 4.84273 14.9353 5.10933 15.9324 5.65455C16.9295 6.19977 17.7613 7.00347 18.3405 7.98122C19.5998 10.0165 19.5389 12.4049 18.1548 15.0804C18.1076 15.1759 18.0997 15.286 18.1328 15.3872C18.166 15.4884 18.2376 15.5726 18.3322 15.6215C18.4268 15.6704 18.5368 15.6803 18.6385 15.6489C18.7403 15.6176 18.8257 15.5475 18.8763 15.4538C20.401 12.5068 20.4534 9.84753 19.0323 7.55425C18.3758 6.45343 17.4355 5.54931 16.3098 4.93653C15.1841 4.32375 13.9143 4.02483 12.6335 4.07106C11.2425 4.14041 9.90367 4.62223 8.7875 5.45515C8.74482 5.48716 8.70886 5.52727 8.68168 5.57317C8.6545 5.61908 8.63663 5.66989 8.62908 5.7227C8.62154 5.77551 8.62447 5.8293 8.63771 5.88098C8.65095 5.93266 8.67424 5.98122 8.70625 6.0239C8.73826 6.06658 8.77836 6.10254 8.82427 6.12972C8.87017 6.1569 8.92098 6.17478 8.9738 6.18232C9.02661 6.18987 9.08039 6.18693 9.13207 6.17369C9.18375 6.16045 9.23232 6.13716 9.275 6.10515L9.27297 6.10678Z" fill="black" stroke="black" stroke-width="0.3"/>
<path id="Vector_2" d="M15.5583 12.8715C15.6034 12.9001 15.6536 12.9196 15.7062 12.9288C15.7588 12.938 15.8127 12.9367 15.8648 12.9251C15.9169 12.9134 15.9662 12.8916 16.0099 12.8609C16.0536 12.8301 16.0907 12.7911 16.1193 12.746C16.4869 12.1644 16.6812 11.4901 16.6795 10.8021C16.6784 9.82628 16.2902 8.89078 15.6002 8.20079C14.9102 7.51079 13.9747 7.12264 12.9989 7.12145C12.3118 7.12023 11.6384 7.31316 11.0562 7.67802C11.0109 7.7064 10.9716 7.74343 10.9405 7.78701C10.9095 7.83058 10.8874 7.87985 10.8754 7.93198C10.8634 7.98411 10.8617 8.0381 10.8706 8.09086C10.8795 8.14361 10.8987 8.19411 10.927 8.23945C10.9554 8.2848 10.9925 8.32411 11.036 8.35515C11.0796 8.38618 11.1289 8.40833 11.181 8.42032C11.2331 8.43232 11.2871 8.43393 11.3399 8.42506C11.3926 8.4162 11.4431 8.39702 11.4885 8.36864C11.9408 8.08403 12.4645 7.93332 12.9989 7.93395C13.7593 7.93481 14.4883 8.23727 15.026 8.77496C15.5637 9.31265 15.8662 10.0417 15.867 10.8021C15.8687 11.3353 15.7187 11.8581 15.4344 12.3093C15.4055 12.3543 15.3858 12.4046 15.3764 12.4572C15.3669 12.5099 15.368 12.5639 15.3795 12.6161C15.3911 12.6684 15.4128 12.7178 15.4434 12.7616C15.4741 12.8055 15.5131 12.8428 15.5583 12.8715ZM6.93645 7.51227C6.28587 8.60284 5.94238 9.84907 5.94235 11.119C5.94235 15.864 10.7706 20.3932 12.2514 21.6693C12.4594 21.8485 12.7249 21.9471 12.9995 21.9471C13.2741 21.9471 13.5396 21.8485 13.7476 21.6693C15.0614 20.5336 16.2556 19.2665 17.3117 17.8879L21.7508 22.3262C21.8274 22.4002 21.93 22.4411 22.0365 22.4402C22.143 22.4393 22.2449 22.3965 22.3202 22.3212C22.3956 22.2459 22.4383 22.144 22.4392 22.0375C22.4401 21.931 22.3992 21.8284 22.3252 21.7517L4.24707 3.67361C4.17045 3.59961 4.06783 3.55866 3.96131 3.55959C3.8548 3.56051 3.7529 3.60324 3.67758 3.67856C3.60226 3.75388 3.55953 3.85577 3.55861 3.96229C3.55768 4.06881 3.59863 4.17143 3.67263 4.24805L6.93645 7.51227ZM13.2187 21.0518C13.1581 21.1048 13.0803 21.134 12.9997 21.134C12.9192 21.134 12.8414 21.1048 12.7808 21.0518C11.367 19.833 6.75485 15.517 6.75485 11.1177C6.75411 10.0638 7.02081 9.02694 7.52998 8.10417L9.41863 9.99364C9.35499 10.2584 9.32133 10.5294 9.31829 10.8017C9.31936 11.7775 9.70748 12.7131 10.3975 13.4032C11.0875 14.0933 12.023 14.4815 12.9989 14.4827C13.2712 14.4797 13.5422 14.446 13.8069 14.3824L16.7319 17.3074C15.695 18.6749 14.5175 19.9299 13.2187 21.0518ZM13.0883 13.6637C13.0582 13.6637 13.029 13.6702 12.9989 13.6702C12.2385 13.6693 11.5095 13.3669 10.9718 12.8292C10.4341 12.2915 10.1316 11.5625 10.1308 10.8021C10.1308 10.772 10.1365 10.7428 10.1373 10.7127L13.0883 13.6637Z" fill="black" stroke="black" stroke-width="0.3"/>
</g>
</svg>
