<svg width="16" height="12" viewBox="0 0 16 12" fill="none" xmlns="http://www.w3.org/2000/svg">
<g clip-path="url(#clip0_2001_3650)">
<path d="M0.264085 8.31889L0.264057 8.319C0.165214 8.71976 0.181109 9.13861 0.309693 9.53032L0.309702 9.53035C0.551225 10.2665 1.16618 10.8166 1.91201 10.968L1.91209 10.968L2.44878 11.0772C2.44879 11.0772 2.44881 11.0772 2.44883 11.0772C2.58844 11.1055 2.72857 11.1194 2.86772 11.1194L0.264085 8.31889ZM0.264085 8.31889L0.536565 7.21132C0.536568 7.2113 0.536572 7.21129 0.536575 7.21127C0.601821 6.94628 0.601813 6.66646 0.536569 6.40141L0.263909 5.29371L0.2639 5.29367C0.165214 4.89307 0.181102 4.47419 0.3097 4.08229C0.551218 3.34632 1.16618 2.79618 1.91203 2.6447C1.91203 2.6447 1.91203 2.6447 1.91203 2.6447L2.44877 2.53571L2.44879 2.53571C3.14671 2.39391 3.86516 2.61415 4.36977 3.12681L4.36984 3.12688L4.49261 3.25148L4.55136 3.31111H4.63508H6.62525H6.8491L6.82398 3.08867C6.80445 2.91568 6.7935 2.74019 6.7935 2.56528C6.7935 1.97599 6.90346 1.3937 7.10849 0.966588C7.31551 0.535346 7.59184 0.309924 7.91217 0.309924C8.2325 0.309924 8.50883 0.535347 8.71585 0.966588C8.92088 1.3937 9.03084 1.97599 9.03084 2.56528C9.03084 2.74195 9.02044 2.91777 9.0014 3.08901L8.97671 3.31111H9.20018H11.1893H11.273L11.3318 3.25143L11.4545 3.12674C11.9594 2.61401 12.677 2.39359 13.3755 2.53561C13.3755 2.53561 13.3755 2.53561 13.3755 2.53562L13.9123 2.64478L13.9123 2.6448C14.6582 2.79618 15.2731 3.34631 15.5146 4.08245L15.5146 4.08248C15.6432 4.47419 15.6591 4.89304 15.5603 5.2937L15.5603 5.29382L15.2878 6.40148C15.2878 6.40149 15.2878 6.40151 15.2878 6.40152C15.2225 6.66652 15.2225 6.94633 15.2878 7.21139L15.482 7.16358L15.2878 7.21139L15.5604 8.31901L15.5604 8.31903C15.6591 8.71973 15.6432 9.13861 15.5146 9.53051C15.2731 10.2665 14.6582 10.8166 13.9123 10.9681L13.3756 11.0771L13.3755 11.0771C12.6781 11.2191 11.9594 10.9988 11.4546 10.486L11.4545 10.4859L11.3317 10.3613L11.273 10.3017H11.1893H4.63508H4.55132M0.264085 8.31889L4.55132 10.3017M4.55132 10.3017L4.49256 10.3614M4.55132 10.3017L4.49256 10.3614M4.49256 10.3614L4.3698 10.4861C3.96572 10.8964 3.42518 11.1193 2.86775 11.1194L4.49256 10.3614ZM4.28478 3.73292L4.2848 3.73295C4.32993 3.77878 4.3905 3.80397 4.45307 3.80397H6.82671H6.96679L7.01467 3.9356C7.22319 4.50887 7.53917 4.82064 7.91217 4.82064C8.0445 4.82064 8.15619 4.71085 8.15619 4.57474C8.15619 4.4333 8.04827 4.32892 7.92127 4.32892H7.88926L7.85885 4.31893C7.79928 4.29936 7.7539 4.26049 7.72467 4.23125C7.69187 4.19844 7.66067 4.15851 7.63148 4.11452L7.42551 3.80397H7.79816H8.61865H8.63166L8.64456 3.80565C8.6741 3.80951 8.69582 3.80919 8.71198 3.80656L8.72791 3.80397H8.74406H11.3713C11.4338 3.80397 11.4944 3.77878 11.5395 3.73295L11.7911 3.47747C12.1814 3.08101 12.7385 2.90848 13.2828 3.01915L13.2828 3.01915L13.8195 3.12829C13.8195 3.1283 13.8196 3.12831 13.8196 3.12831C14.4001 3.24611 14.8745 3.67277 15.0606 4.24001C15.0606 4.24005 15.0606 4.24009 15.0606 4.24012L4.28478 3.73292ZM4.28478 3.73292L4.03328 3.47758C3.72085 3.16016 3.30104 2.98645 2.86689 2.98645C2.75889 2.98645 2.64991 2.99717 2.54155 3.01922C2.54153 3.01922 2.5415 3.01923 2.54147 3.01924L2.00482 3.12821M4.28478 3.73292L2.00482 3.12821M11.5396 9.87988L11.5395 9.87985C11.4944 9.83402 11.4338 9.80883 11.3713 9.80883H4.45307C4.3905 9.80883 4.32994 9.83402 4.2848 9.87985L4.03326 10.1353L4.03325 10.1353C3.64279 10.5318 3.08541 10.7037 2.54168 10.5937L2.54149 10.5937L2.00485 10.4845C2.00482 10.4845 2.00479 10.4845 2.00475 10.4845C1.42424 10.3667 0.949806 9.94003 0.763786 9.37279C0.664692 9.07115 0.652414 8.74854 0.728513 8.43999C0.728521 8.43995 0.72853 8.43992 0.728538 8.43988L1.00115 7.33228C1.08565 6.98839 1.08566 6.62453 1.00118 6.28054C1.00118 6.28052 1.00117 6.28051 1.00117 6.28049C1.00116 6.28047 1.00116 6.28044 1.00115 6.28042L0.728347 5.17266L0.728345 5.17265C0.652417 4.8643 0.66469 4.54171 0.763755 4.23993L11.5396 9.87988ZM11.5396 9.87988L11.791 10.1352C11.7911 10.1352 11.7911 10.1352 11.7911 10.1353M11.5396 9.87988L11.7911 10.1353M2.00482 3.12821L2.00481 3.12821C1.42428 3.24608 0.949798 3.67275 0.763774 4.23987L2.00482 3.12821ZM11.7911 10.1353C12.1813 10.5318 12.7387 10.7047 13.2828 10.5936L11.7911 10.1353ZM7.99924 0.825347L7.91217 0.783238L7.8251 0.825347C7.77675 0.848726 7.73786 0.884329 7.70909 0.915508C7.6782 0.948982 7.64836 0.989052 7.62003 1.03361C7.56326 1.1229 7.50625 1.24013 7.45542 1.38253C7.35349 1.66807 7.27261 2.06526 7.27261 2.56528C7.27261 2.77562 7.28742 2.96624 7.31141 3.13867L7.33539 3.31111H7.5095H8.31333H8.48744L8.51142 3.13866C8.53695 2.95508 8.55173 2.76239 8.55173 2.56528C8.55173 2.06526 8.47085 1.66807 8.36892 1.38253C8.31809 1.24013 8.26108 1.1229 8.20431 1.03361C8.17598 0.989052 8.14614 0.948982 8.11525 0.915508C8.08648 0.884329 8.04759 0.848726 7.99924 0.825347ZM14.8232 6.28052L15.0958 5.17284L15.0606 9.37287C15.1597 9.07109 15.1719 8.7485 15.096 8.44007L15.096 8.44005L14.8232 7.33228C14.8232 7.33225 14.8232 7.33221 14.8232 7.33218C14.7387 6.9883 14.7387 6.62447 14.8232 6.2806C14.8232 6.28057 14.8232 6.28055 14.8232 6.28052ZM13.8195 10.4846C14.4001 10.3667 14.8745 9.94005 15.0606 9.37293L13.283 10.5935L13.8195 10.4846Z" fill="#9999AA" stroke="#9999AA" stroke-width="0.4"/>
<path d="M8.53043 7.07856H3.96077C3.77467 7.07856 3.62121 6.92496 3.62121 6.73213C3.62121 6.53931 3.77467 6.38571 3.96077 6.38571H8.53043C8.71653 6.38571 8.86999 6.53931 8.86999 6.73213C8.86999 6.92496 8.71653 7.07856 8.53043 7.07856Z" fill="#9999AA" stroke="white" stroke-width="0.2"/>
<path d="M11.7291 7.07856H10.3581C10.172 7.07856 10.0185 6.92496 10.0185 6.73213C10.0185 6.53931 10.172 6.38571 10.3581 6.38571H11.7291C11.9152 6.38571 12.0687 6.53931 12.0687 6.73213C12.0687 6.92496 11.9152 7.07856 11.7291 7.07856Z" fill="#9999AA" stroke="white" stroke-width="0.2"/>
</g>
<defs>
<clipPath id="clip0_2001_3650">
<rect width="16" height="11.4286" fill="white"/>
</clipPath>
</defs>
</svg>
