<svg width="24" height="24" viewBox="0 0 24 24" fill="none" xmlns="http://www.w3.org/2000/svg">
<g id="pin">
<path id="Vector" d="M12.0004 18.1574C12.053 18.1574 12.1051 18.1464 12.1532 18.1249C12.2013 18.1035 12.2443 18.0721 12.2794 18.0329C12.527 17.7571 18.3409 11.2393 18.3409 7.84016C18.3397 6.15943 17.6711 4.54797 16.4822 3.35997C15.2932 2.17197 13.6813 1.50464 12.0005 1.50464C10.3198 1.50464 8.70785 2.17197 7.51894 3.35997C6.33002 4.54797 5.66145 6.15943 5.66016 7.84016C5.66016 11.2393 11.4738 17.7571 11.7213 18.0329C11.7565 18.0721 11.7995 18.1035 11.8476 18.1249C11.8957 18.1464 11.9477 18.1574 12.0004 18.1574ZM12.0004 2.24993C13.4825 2.25155 14.9035 2.84103 15.9516 3.88904C16.9997 4.93704 17.5892 6.35799 17.5909 7.84015C17.5909 10.5567 13.1675 15.8609 12.0004 17.2128C10.8333 15.8609 6.41016 10.5567 6.41016 7.84015C6.41185 6.35805 7.00136 4.93714 8.04936 3.88914C9.09736 2.84114 10.5183 2.25163 12.0004 2.24993Z" fill="#EF6C00" stroke="#EF6C00" stroke-width="0.5"/>
<path id="Vector_2" d="M12.3402 22.5049C15.8954 22.5049 18.6804 21.03 18.6804 19.1473C18.6804 18.2836 18.0894 17.4704 17.016 16.8575C16.9732 16.8331 16.926 16.8173 16.8772 16.8111C16.8283 16.8049 16.7787 16.8084 16.7312 16.8214C16.6352 16.8476 16.5536 16.9108 16.5042 16.9972C16.4549 17.0836 16.4419 17.1861 16.4681 17.2821C16.4943 17.378 16.5575 17.4597 16.6439 17.509C17.4734 17.9825 17.9304 18.5644 17.9304 19.1473C17.9304 20.5607 15.3702 21.7549 12.3402 21.7549C9.31018 21.7549 6.75 20.5607 6.75 19.1473C6.75 18.5606 7.21216 17.9759 8.05114 17.5008C8.13736 17.4516 8.20055 17.3702 8.22686 17.2745C8.25317 17.1787 8.24046 17.0765 8.19151 16.9901C8.14256 16.9037 8.06136 16.8403 7.96572 16.8137C7.87008 16.7871 7.76779 16.7995 7.68128 16.8482C6.59729 17.4621 6 18.2786 6 19.1473C6 21.03 8.78504 22.5049 12.3402 22.5049Z" fill="#EF6C00" stroke="#EF6C00" stroke-width="0.5"/>
<path id="Vector_3" d="M12.3789 10.5V7.875H15.0039C15.1034 7.875 15.1987 7.83549 15.2691 7.76517C15.3394 7.69484 15.3789 7.59946 15.3789 7.5C15.3789 7.40054 15.3394 7.30516 15.2691 7.23483C15.1987 7.16451 15.1034 7.125 15.0039 7.125H12.3789V4.5C12.3789 4.40054 12.3394 4.30516 12.2691 4.23484C12.1987 4.16451 12.1034 4.125 12.0039 4.125C11.9045 4.125 11.8091 4.16451 11.7387 4.23484C11.6684 4.30516 11.6289 4.40054 11.6289 4.5V7.125H9.00391C8.90445 7.125 8.80907 7.16451 8.73874 7.23483C8.66842 7.30516 8.62891 7.40054 8.62891 7.5C8.62891 7.59946 8.66842 7.69484 8.73874 7.76517C8.80907 7.83549 8.90445 7.875 9.00391 7.875H11.6289V10.5C11.6289 10.5995 11.6684 10.6948 11.7387 10.7652C11.8091 10.8355 11.9045 10.875 12.0039 10.875C12.1034 10.875 12.1987 10.8355 12.2691 10.7652C12.3394 10.6948 12.3789 10.5995 12.3789 10.5Z" fill="#EF6C00" stroke="#EF6C00" stroke-width="0.5"/>
</g>
</svg>
