<svg width="20" height="20" viewBox="0 0 20 20" fill="none" xmlns="http://www.w3.org/2000/svg">
<rect width="20" height="20" rx="10" fill="#F4F4F4"/>
<rect width="20" height="20" rx="10" fill="url(#paint0_linear_2001_3545)"/>
<path d="M12.1205 14.2153C12.5112 14.295 12.7889 14.4853 12.8223 14.93C12.7632 14.9403 12.7118 14.9531 12.6578 14.9531C12.2002 14.9531 11.7426 14.9506 11.285 14.9557C11.141 14.9557 11.0922 14.912 11.0948 14.7655C11.0999 14.2333 11.0948 13.6986 11.0948 13.1665C11.0948 13.0919 11.0948 13.0174 11.0948 12.9094C10.7837 13.0019 10.5086 13.1048 10.2233 13.1665C9.50603 13.3207 8.78622 13.403 8.04585 13.3567C7.45715 13.3181 6.88644 13.2102 6.3183 13.0662C6.26432 13.0533 6.15635 13.0713 6.14349 13.1022C5.99696 13.457 5.86585 13.8169 5.72189 14.1999C6.12807 14.3156 6.44427 14.475 6.4417 14.9557C5.89927 14.9557 5.37484 14.9608 4.85041 14.948C4.80927 14.948 4.73729 14.8246 4.73729 14.7603C4.73729 14.3182 4.763 13.876 4.76043 13.4338C4.75529 12.2564 4.74501 11.0816 4.72701 9.90418C4.72701 9.79621 4.67302 9.67538 4.61647 9.58026C4.14602 8.79619 3.94036 7.95041 4.01491 7.03779C4.02005 6.97095 4.03291 6.90411 4.0509 6.79614C4.17687 7.09692 4.26942 7.35914 4.39281 7.6085C5.64734 10.1535 9.02016 10.7782 11.0973 8.84503C11.2464 8.70621 11.3518 8.69593 11.5266 8.7859C12.159 9.11239 12.7992 9.42859 13.4418 9.73708C13.6089 9.81677 13.6578 9.88618 13.5858 10.079C13.2233 11.0507 12.8814 12.0302 12.5318 13.0071C12.4058 13.3567 12.2773 13.7063 12.1513 14.0559C12.1359 14.0996 12.1308 14.1459 12.1153 14.2153H12.1205Z" fill="white"/>
<path d="M12.6206 5.07368C12.5692 4.78832 13.1194 5.40788 13.2736 5.63924C13.2736 5.63924 13.3842 5.85261 13.451 5.98629C13.451 5.98629 14.1065 6.04285 14.559 6.55186C14.559 6.55186 15.158 6.37705 16.0012 6.71896C16.0012 6.71896 14.4947 7.24853 13.9831 8.97864C13.9472 9.10204 13.8932 9.22287 13.834 9.38225C13.6052 9.26914 13.4022 9.16888 13.1991 9.06862C12.7286 8.83468 12.2582 8.60074 11.7852 8.36938C11.7852 8.36938 12.8469 6.29221 12.6232 5.07368H12.6206Z" fill="white"/>
<path d="M4.71395 9.5288C4.71395 9.5288 3.98128 8.49022 4.08411 7.03775C4.08668 6.98633 4.37204 8.3951 5.51088 9.13805L4.71395 9.5288Z" fill="#231F20"/>
<defs>
<linearGradient id="paint0_linear_2001_3545" x1="3.65708" y1="2.90415" x2="15.0585" y2="18.3929" gradientUnits="userSpaceOnUse">
<stop stop-color="#76C644"/>
<stop offset="1" stop-color="#549E26"/>
</linearGradient>
</defs>
</svg>
